<svg width="125" height="29" viewBox="0 0 125 29" fill="none" xmlns="http://www.w3.org/2000/svg">
<path d="M53.136 24V7.176H48.48L43.92 17.184L39.36 7.176H34.68V24H38.496V13.08L42.528 22.32H45.312L49.344 13.08L49.368 24H53.136ZM68.9318 11.064H64.8038L61.9958 19.656L58.8278 11.064H54.5557L59.9318 23.712L59.6198 24.36C59.2838 25.056 58.7558 25.392 58.0117 25.392C57.4118 25.392 56.9078 25.176 56.3078 24.696L54.5797 27.528C55.7318 28.416 56.9078 28.848 58.3478 28.848C60.7478 28.848 62.3798 27.696 63.3398 25.344L68.9318 11.064ZM82.8638 10.632V7.176H68.5118V10.632H73.5278V24H77.7998V10.632H82.8638ZM90.4796 10.872C88.3196 10.872 86.4956 11.4 84.4796 12.336L85.6556 15.072C87.0236 14.376 88.4396 13.992 89.5196 13.992C91.1996 13.992 92.0396 14.76 92.0396 16.032V16.224H88.6316C85.4156 16.248 83.6636 17.688 83.6636 20.136C83.6636 22.512 85.3436 24.192 88.1036 24.192C89.8556 24.192 91.2236 23.616 92.0636 22.512V24H96.1196V15.552C96.0956 12.624 94.0316 10.872 90.4796 10.872ZM89.3756 21.384C88.2236 21.384 87.5516 20.784 87.5516 19.848C87.5516 18.888 88.1756 18.456 89.4236 18.456H92.0396V19.608C91.7756 20.664 90.6716 21.384 89.3756 21.384ZM103.694 10.872C100.694 10.872 98.4383 12.312 98.4383 14.976C98.4143 19.512 105.11 18.528 105.11 20.424C105.11 21.024 104.51 21.312 103.694 21.312C102.254 21.312 100.574 20.736 99.1103 19.704L97.7903 22.344C99.3503 23.544 101.438 24.168 103.598 24.168C106.718 24.168 109.046 22.704 109.046 20.04C109.07 15.528 102.254 16.392 102.254 14.616C102.254 14.016 102.782 13.728 103.526 13.728C104.606 13.728 106.046 14.184 107.606 15.024L109.022 12.336C107.438 11.4 105.566 10.872 103.694 10.872ZM117.031 19.008L119.839 24H124.759L119.863 16.032L124.615 11.064H119.911L115.639 15.6V6.192H111.487V24H115.639V20.472L117.031 19.008Z" fill="#4329D2"/>
<path d="M11.0769 5.23076L10.2923 4.44615C10.0615 4.21538 9.73846 4.21538 9.50769 4.44615L4.61539 9.2923L2.63077 7.35384C2.4 7.12307 2.07692 7.12307 1.84615 7.35384L1.06154 8.13846C0.83077 8.36923 0.83077 8.6923 1.06154 8.92307L3.78462 11.6461C4.01538 11.8769 4.29231 11.9692 4.56923 11.9692C4.84615 11.9692 5.12308 11.8769 5.35385 11.6461L11.0769 6.01538C11.2615 5.83076 11.2615 5.46153 11.0769 5.23076Z" fill="#4329D2"/>
<path d="M22.3385 10.4923H12.6923C12.2769 10.4923 11.9538 10.1692 11.9538 9.75384V8.27691C11.9538 7.86153 12.2769 7.53845 12.6923 7.53845H22.3385C22.7538 7.53845 23.0769 7.86153 23.0769 8.27691V9.75384C23.0769 10.1692 22.7538 10.4923 22.3385 10.4923Z" fill="#4329D2"/>
<path d="M22.3385 17.0923H10.4769C10.0615 17.0923 9.73846 16.7692 9.73846 16.3538V14.8769C9.73846 14.4615 10.0615 14.1385 10.4769 14.1385H22.3385C22.7538 14.1385 23.0769 14.4615 23.0769 14.8769V16.3538C23.0769 16.7692 22.7538 17.0923 22.3385 17.0923Z" fill="#4329D2"/>
<path d="M6 17.0923H4.52308C4.10769 17.0923 3.78461 16.7692 3.78461 16.3538V14.8769C3.78461 14.4615 4.10769 14.1385 4.52308 14.1385H6C6.41538 14.1385 6.73846 14.4615 6.73846 14.8769V16.3538C6.78461 16.7692 6.41538 17.0923 6 17.0923Z" fill="#4329D2"/>
<path d="M6 23.6923H4.52308C4.10769 23.6923 3.78461 23.3692 3.78461 22.9539V21.4769C3.78461 21.0615 4.10769 20.7385 4.52308 20.7385H6C6.41538 20.7385 6.73846 21.0615 6.73846 21.4769V22.9539C6.78461 23.3692 6.41538 23.6923 6 23.6923Z" fill="#4329D2"/>
<path d="M22.3385 23.6923H10.4769C10.0615 23.6923 9.73846 23.3692 9.73846 22.9539V21.4769C9.73846 21.0615 10.0615 20.7385 10.4769 20.7385H22.3385C22.7538 20.7385 23.0769 21.0615 23.0769 21.4769V22.9539C23.0769 23.3692 22.7538 23.6923 22.3385 23.6923Z" fill="#4329D2"/>
</svg>
