<svg width="156" height="149" viewBox="0 0 156 149" fill="none" xmlns="http://www.w3.org/2000/svg">
<g clip-path="url(#clip0_1_6)">
<path d="M0.190033 148.841C0.190033 148.841 0.984118 143.63 11.1113 142.227C21.2385 140.824 30.6572 129.584 47.3596 131.212C64.062 132.841 77.921 143.081 96.9333 139.944C115.946 136.807 127.85 140.801 132.115 143.958C136.379 147.115 154.028 143.219 155.331 148.996L0.190033 148.841Z" fill="#4F3ACE"/>
<path d="M41.8229 24.6636C41.8229 24.6636 30.3919 24.108 36.4555 59.0113C36.4555 59.0113 40.5353 70.8605 35.3856 78.4978H111.193V24.6598L41.8229 24.6636Z" fill="#AFCDFB"/>
<path d="M49.6088 115.419C49.6088 115.419 44.3126 109.226 49.2826 105.296C49.2826 105.296 52.9116 103.094 55.872 103.273C55.872 103.273 51.6781 110.324 53.0352 111.021C54.3923 111.717 57.1426 102.831 57.1426 102.831C57.1426 102.831 65.403 102.028 68.061 103.307C68.061 103.307 60.9989 109.098 62.4862 109.443C63.9736 109.788 71.6006 104.107 71.6006 104.107C71.6006 104.107 79.2895 105.418 78.8796 110.117C78.4697 114.815 75.8202 116.267 74.6562 116.143C73.4922 116.018 66.6811 113.413 66.5327 114.368C66.3844 115.324 70.4842 118.449 73.3552 118.594C73.3552 118.594 67.9345 124.583 64.3321 122.856C60.7297 121.128 60.4226 118.387 58.1763 117.358C55.9301 116.33 54.0138 116.334 54.9429 117.381C55.872 118.429 59.9347 119.449 61.2195 121.725C62.5043 124 63.656 125.536 59.929 124.974C56.202 124.412 50.1432 121.68 49.8779 118.551L49.6088 115.419Z" fill="#3566C9"/>
<path d="M75.1013 110.242C75.1013 110.242 54.2201 109.435 49.6087 115.419C49.6087 115.419 48.5893 118.48 45.451 121.266L44.9612 122.6C44.9612 122.6 48.575 118.777 49.875 118.547C49.875 118.549 47.8494 111.135 75.1013 110.242Z" fill="#3566C9"/>
<path d="M45.451 121.266C45.451 121.266 40.9689 124.588 40.657 130.523L41.471 130.595C41.471 130.595 42.8975 124.459 45.49 122.06C48.0824 119.661 45.451 121.266 45.451 121.266Z" fill="#3566C9"/>
<path d="M31.0918 107.633C31.0918 107.633 39.5167 102.907 35.5853 96.4912C35.5853 96.4912 32.4394 92.552 29.07 91.5362C29.07 91.5362 30.8674 101.103 29.07 101.328C27.2726 101.553 27.8347 90.5242 27.8347 90.5242C27.8347 90.5242 18.9609 86.2467 15.4783 86.585C15.4783 86.585 20.9827 95.9233 19.1872 95.7013C17.3917 95.4792 11.2112 86.0218 11.2112 86.0218C11.2112 86.0218 2.11296 84.3333 0.655082 89.7381C-0.802801 95.1429 1.55378 97.8376 2.9023 98.1797C4.25081 98.5218 12.8992 98.4046 12.6748 99.53C12.4503 100.655 6.60929 102.456 3.35497 101.443C3.35497 101.443 6.94975 110.335 11.6677 109.885C16.3856 109.435 17.8492 106.508 20.7659 106.283C23.6826 106.058 25.8214 106.846 24.3607 107.633C22.8999 108.42 17.9576 107.892 15.5991 109.901C13.2406 111.911 11.3253 113.149 15.6999 114.049C20.0745 114.95 27.944 114.386 29.516 111.01L31.0918 107.633Z" fill="#7B6DD0"/>
<path d="M4.80716 91.4266C4.80716 91.4266 28.392 99.0802 31.0918 107.633C31.0918 107.633 30.9796 111.46 33.3381 115.85V117.539C33.3381 117.539 30.8655 111.798 29.5189 111.01C29.5189 111.011 34.7988 103.579 4.80716 91.4266Z" fill="#6D89D0"/>
<path d="M33.3381 115.85C33.3381 115.85 36.9766 121.385 34.9025 128.123L33.9667 127.871C33.9667 127.871 34.8749 120.45 32.972 116.722C31.069 112.994 33.3381 115.85 33.3381 115.85Z" fill="#6D89D0"/>
<path d="M44.4952 101.115C44.4952 101.115 33.3885 94.8827 38.5724 86.4268C38.5724 86.4268 42.7178 81.2345 47.1599 79.8995C47.1599 79.8995 44.791 92.51 47.1599 92.8064C49.5289 93.1027 48.789 78.5636 48.789 78.5636C48.789 78.5636 60.4863 72.9263 65.0768 73.3713C65.0768 73.3713 57.8216 85.6855 60.1905 85.3882C62.5595 85.0909 70.7029 72.629 70.7029 72.629C70.7029 72.629 82.6969 70.404 84.6217 77.5249C86.5465 84.6459 83.4377 88.2078 81.6603 88.6527C79.8829 89.0977 68.4804 88.9481 68.7781 90.4289C69.0757 91.9097 76.7741 94.2862 81.0678 92.9512C81.0678 92.9512 76.3299 104.672 70.1114 104.079C63.8928 103.486 61.967 99.6281 58.1173 99.3308C54.2677 99.0335 51.4546 100.073 53.3795 101.112C55.3043 102.15 61.8186 101.452 64.9284 104.1C68.0382 106.748 70.5555 108.381 64.781 109.568C59.0065 110.754 48.6406 110.014 46.5675 105.566L44.4952 101.115Z" fill="#463ACE"/>
<path d="M79.143 79.7499C79.143 79.7499 48.0453 89.8382 44.4952 101.115C44.4952 101.115 44.6426 106.159 41.5338 111.945V114.17C41.5338 114.17 44.791 106.604 46.5675 105.566C46.5675 105.566 39.608 95.7727 79.143 79.7499Z" fill="#6D89D0"/>
<path d="M41.5338 111.945C41.5338 111.945 36.7379 119.241 39.472 128.123L40.7083 127.791C40.7083 127.791 39.511 118.008 42.0198 113.088C44.5285 108.167 41.5338 111.945 41.5338 111.945Z" fill="#6D89D0"/>
<path d="M44.1205 147.383C56.1345 147.383 65.8737 137.624 65.8737 125.587H22.3674C22.3674 137.624 32.1066 147.383 44.1205 147.383Z" fill="#FB7369"/>
<path d="M49.4737 147.221C48.5772 147.333 47.6745 147.389 46.771 147.388C34.757 147.383 25.0197 137.624 25.0197 125.59H30.4233C30.4223 136.708 38.735 145.887 49.4737 147.221Z" fill="#F2564B"/>
<path d="M66.1742 148.492H22.0716C22.0716 147.779 22.3543 147.095 22.8576 146.591C23.3609 146.086 24.0435 145.803 24.7553 145.803H63.4905C64.2023 145.803 64.8849 146.086 65.3882 146.591C65.8915 147.095 66.1742 147.779 66.1742 148.492Z" fill="#FB7369"/>
<path d="M66.3692 125.587H21.6522V126.256H66.3692V125.587Z" fill="#F2564B"/>
<path d="M122.837 42.7103C122.837 42.7103 119.026 35.5065 124.739 32.7622C124.739 32.7622 128.762 31.4129 131.612 32.2381C131.612 32.2381 125.976 38.1907 127.142 39.1732C128.308 40.1556 132.943 32.0866 132.943 32.0866C132.943 32.0866 141.178 33.1204 143.491 34.9528C143.491 34.9528 135.333 39.0503 136.708 39.7125C138.083 40.3748 146.77 36.5089 146.77 36.5089C146.77 36.5089 153.983 39.4791 152.554 43.9729C151.124 48.4667 148.222 49.3014 147.114 48.9231C146.006 48.5448 139.931 44.5055 139.577 45.406C139.223 46.3065 142.539 50.2552 145.307 51.028C145.307 51.028 138.707 55.6791 135.571 53.2006C132.434 50.7222 132.736 47.9807 130.77 46.4847C128.804 44.9886 126.934 44.5694 127.608 45.7957C128.282 47.0221 132.025 48.9098 132.779 51.412C133.534 53.9143 134.321 55.6667 130.808 54.2983C127.295 52.93 121.984 48.9326 122.41 45.8177L122.837 42.7103Z" fill="#3835C9"/>
<path d="M148.84 43.2658C148.84 43.2658 128.643 37.8868 122.834 42.7103C122.834 42.7103 121.169 45.4736 117.497 47.5014L116.727 48.6963C116.727 48.6963 121.094 45.7624 122.409 45.8224C122.412 45.8224 122.06 38.144 148.84 43.2658Z" fill="#3566C9"/>
<path d="M117.5 47.5014C117.5 47.5014 112.4 49.7559 110.795 55.477L111.573 55.7267C111.573 55.7267 114.319 50.0551 117.362 48.2827C120.405 46.5104 117.5 47.5014 117.5 47.5014Z" fill="#3566C9"/>
<path d="M97.7455 29.7158C97.7455 29.7158 86.46 23.8222 91.389 15.2109C91.389 15.2109 95.3832 9.89669 99.7797 8.42925C99.7797 8.42925 97.7826 21.1026 100.16 21.3313C102.538 21.56 101.368 7.05137 101.368 7.05137C101.368 7.05137 112.892 1.06248 117.494 1.37027C117.494 1.37027 110.608 13.895 112.967 13.5281C115.327 13.1613 123.096 0.461212 123.096 0.461212C123.096 0.461212 135.018 -2.12111 137.154 4.93978C139.29 12.0007 136.288 15.6521 134.524 16.1505C132.761 16.6488 121.361 16.8394 121.701 18.3145C122.042 19.7896 129.808 21.9355 134.064 20.469C134.064 20.469 129.676 32.3257 123.442 31.9179C117.209 31.5101 115.169 27.7119 111.312 27.5346C107.456 27.3574 104.675 28.4751 106.63 29.4556C108.585 30.4362 115.077 29.5443 118.263 32.0989C121.45 34.6536 124.014 36.2097 118.278 37.5685C112.541 38.9273 102.158 38.4947 99.9537 34.1076L97.7455 29.7158Z" fill="#4329D2"/>
<path d="M131.744 7.3277C131.744 7.3277 100.963 18.3393 97.7455 29.7205C97.7455 29.7205 98.0432 34.7584 95.1075 40.6349L95.1731 42.8589C95.1731 42.8589 98.2049 35.1987 99.9499 34.1076C99.9499 34.1029 92.7024 24.5225 131.744 7.3277Z" fill="#6D89D0"/>
<path d="M95.1084 40.6301C95.1084 40.6301 90.5322 48.0626 93.5288 56.8626L94.7517 56.4938C94.7517 56.4938 93.2644 46.7505 95.6257 41.7584C97.987 36.7662 95.1084 40.6301 95.1084 40.6301Z" fill="#6D89D0"/>
<path d="M125.774 45.326H46.6293V148.747H125.774V45.326Z" fill="#9ABCEF"/>
<path d="M127.032 45.326H49.2169V148.747H127.032V45.326Z" fill="#F8FBFF"/>
<path d="M127.033 45.324H49.2169C49.6468 39.4285 48.9992 35.1472 47.9597 32.0684C45.9626 26.1481 42.5247 24.6626 42.5247 24.6626H115.912C122.175 24.6626 127.032 28.4437 128.353 33.4625C128.403 33.6531 128.449 33.8389 128.488 34.0266C129.744 39.7697 127.084 45.2192 127.033 45.324Z" fill="#F8FBFF"/>
<path d="M127.033 45.3241H49.2169C49.6468 39.4285 48.9992 35.1472 47.9597 32.0685C55.912 33.5273 75.6072 36.6366 96.689 36.1125C110.324 35.7742 121.106 34.8604 128.488 34.0276C129.744 39.7697 127.084 45.2192 127.033 45.3241Z" fill="#F8FBFF"/>
<path d="M107.214 67.2338H64.4729C64.4545 67.2338 64.4396 67.2487 64.4396 67.2671V69.1395C64.4396 69.158 64.4545 69.1729 64.4729 69.1729H107.214C107.232 69.1729 107.247 69.158 107.247 69.1395V67.2671C107.247 67.2487 107.232 67.2338 107.214 67.2338Z" fill="#BBD5FC"/>
<path d="M91.079 70.4964H64.4729C64.4545 70.4964 64.4396 70.5114 64.4396 70.5298V72.4022C64.4396 72.4206 64.4545 72.4356 64.4729 72.4356H91.079C91.0974 72.4356 91.1123 72.4206 91.1123 72.4022V70.5298C91.1123 70.5114 91.0974 70.4964 91.079 70.4964Z" fill="#BBD5FC"/>
<path d="M60.4654 72.1221V68.1609H59.9433C59.6263 68.1609 59.4678 68.0288 59.4678 67.7645C59.4678 67.5739 59.5914 67.4396 59.8396 67.3605C60.0371 67.3063 60.2399 67.2744 60.4444 67.2652C60.7215 67.2442 60.9434 67.2338 61.1101 67.2338C61.2737 67.2338 61.3764 67.2671 61.4183 67.3291C61.4601 67.391 61.482 67.5625 61.482 67.8322V72.1202H62.0193C62.3674 72.1202 62.5414 72.2707 62.5414 72.5718C62.5414 72.8895 62.3674 73.0483 62.0193 73.0483H59.8567C59.7196 73.0522 59.5853 73.0088 59.4763 72.9254C59.4253 72.8842 59.3847 72.8314 59.3579 72.7715C59.3311 72.7115 59.3189 72.646 59.3223 72.5804C59.3223 72.2742 59.4988 72.1211 59.852 72.1211L60.4654 72.1221Z" fill="#BBD5FC"/>
<path d="M107.214 87.6589H64.4729C64.4545 87.6589 64.4396 87.6738 64.4396 87.6922V89.5646C64.4396 89.5831 64.4545 89.598 64.4729 89.598H107.214C107.232 89.598 107.247 89.5831 107.247 89.5646V87.6922C107.247 87.6738 107.232 87.6589 107.214 87.6589Z" fill="#D2E4FD"/>
<path d="M91.079 90.9225H64.4729C64.4545 90.9225 64.4396 90.9375 64.4396 90.9559V92.8283C64.4396 92.8467 64.4545 92.8616 64.4729 92.8616H91.079C91.0974 92.8616 91.1123 92.8467 91.1123 92.8283V90.9559C91.1123 90.9375 91.0974 90.9225 91.079 90.9225Z" fill="#D2E4FD"/>
<path d="M62.627 92.4662C62.627 92.7298 62.4428 92.8616 62.0745 92.8616H59.7826C59.4516 92.8616 59.2861 92.7292 59.2861 92.4624C59.2972 92.3526 59.344 92.2494 59.4193 92.1689C59.5499 92.0196 59.7401 91.7954 59.9899 91.4962C60.3703 91.0159 60.6895 90.6004 60.9475 90.2498C61.0363 90.1335 61.1631 89.9563 61.3279 89.7181C61.4445 89.5374 61.5142 89.3304 61.5305 89.1158C61.5332 89.0326 61.5191 88.9497 61.4891 88.8721C61.459 88.7945 61.4136 88.7238 61.3555 88.6642C61.2974 88.605 61.2277 88.5587 61.1507 88.528C61.0738 88.4973 60.9913 88.483 60.9085 88.486C60.7394 88.4828 60.575 88.5425 60.4473 88.6537C60.3367 88.7694 60.2634 88.9159 60.2371 89.0739C60.2034 89.2301 60.1615 89.3843 60.1116 89.5361C60.0848 89.6044 60.0374 89.6627 59.9761 89.7028C59.9147 89.7429 59.8424 89.7629 59.7692 89.76C59.7062 89.7627 59.6434 89.7501 59.5863 89.7232C59.5291 89.6963 59.4793 89.656 59.4411 89.6056C59.3626 89.5066 59.3227 89.3823 59.3289 89.2559C59.3297 89.0872 59.3556 88.9195 59.406 88.7585C59.5016 88.4222 59.7115 88.13 59.9994 87.9324C60.293 87.7436 60.6368 87.6482 60.9856 87.6589C61.3758 87.6475 61.7556 87.7863 62.0469 88.0467C62.1906 88.1774 62.3045 88.3375 62.3808 88.5163C62.4571 88.695 62.494 88.8881 62.4891 89.0825C62.4777 89.4279 62.3678 89.7629 62.1724 90.0478C62.0558 90.2307 61.8158 90.5534 61.4525 91.0159C61.2661 91.2541 60.9726 91.6 60.5719 92.0536H62.0811C62.4457 92.0555 62.6276 92.193 62.627 92.4662Z" fill="#D2E4FD"/>
<path d="M107.214 104.697H64.4729C64.4545 104.697 64.4396 104.712 64.4396 104.731V106.603C64.4396 106.622 64.4545 106.637 64.4729 106.637H107.214C107.232 106.637 107.247 106.622 107.247 106.603V104.731C107.247 104.712 107.232 104.697 107.214 104.697Z" fill="#D2E4FD"/>
<path d="M91.079 107.961H64.4729C64.4545 107.961 64.4396 107.976 64.4396 107.994V109.867C64.4396 109.885 64.4545 109.9 64.4729 109.9H91.079C91.0974 109.9 91.1123 109.885 91.1123 109.867V107.994C91.1123 107.976 91.0974 107.961 91.079 107.961Z" fill="#D2E4FD"/>
<path d="M62.627 108.276C62.6355 108.501 62.593 108.726 62.5026 108.933C62.4122 109.14 62.2762 109.324 62.1049 109.47C61.7768 109.756 61.3593 109.9 60.8553 109.9C60.5013 109.911 60.1524 109.814 59.8548 109.621C59.4167 109.326 59.1977 108.97 59.1977 108.555C59.1955 108.441 59.2363 108.331 59.3118 108.247C59.3481 108.205 59.3932 108.172 59.4439 108.15C59.4945 108.128 59.5494 108.117 59.6047 108.118C59.7315 108.118 59.8482 108.202 59.9547 108.369C60.1316 108.645 60.2333 108.799 60.2619 108.827C60.3397 108.91 60.4341 108.975 60.5389 109.018C60.6437 109.061 60.7564 109.081 60.8695 109.077C61.2024 109.077 61.4401 108.953 61.5837 108.705C61.6543 108.557 61.687 108.393 61.6788 108.229C61.6788 107.761 61.405 107.501 60.8572 107.448C60.5481 107.42 60.3931 107.289 60.3931 107.055C60.392 106.973 60.4178 106.893 60.4666 106.827C60.5154 106.761 60.5845 106.713 60.6632 106.69C60.9986 106.566 61.1688 106.503 61.1739 106.499C61.3527 106.38 61.443 106.173 61.443 105.877C61.4469 105.8 61.4351 105.723 61.4083 105.651C61.3815 105.579 61.3402 105.513 61.287 105.458C61.2307 105.406 61.1645 105.365 61.0923 105.339C61.0201 105.312 60.9434 105.301 60.8667 105.304C60.6825 105.293 60.5006 105.349 60.3541 105.462C60.227 105.591 60.1361 105.751 60.0907 105.927C60.0734 106 60.0314 106.065 59.9717 106.11C59.9121 106.156 59.8385 106.18 59.7635 106.177C59.7073 106.178 59.6516 106.165 59.6017 106.139C59.5519 106.113 59.5094 106.075 59.4782 106.028C59.4068 105.933 59.3681 105.817 59.3679 105.698C59.3699 105.542 59.4118 105.389 59.4896 105.254C59.6282 105.001 59.8433 104.798 60.104 104.675C60.3609 104.546 60.645 104.48 60.9323 104.484C61.3041 104.472 61.6662 104.604 61.9432 104.853C62.0767 104.975 62.1819 105.126 62.2516 105.293C62.3212 105.461 62.3536 105.641 62.3464 105.823C62.3518 106.049 62.2995 106.272 62.1945 106.473C62.0895 106.673 61.9352 106.843 61.7464 106.966C62.3334 107.199 62.627 107.636 62.627 108.276Z" fill="#D2E4FD"/>
<path d="M75.2011 49.9417H102.431C102.441 49.9417 102.451 49.9458 102.459 49.9532C102.466 49.9605 102.47 49.9704 102.47 49.9808V52.1572C102.47 52.1673 102.466 52.177 102.459 52.1841C102.452 52.1913 102.442 52.1953 102.432 52.1953H75.2011C75.196 52.1953 75.1909 52.1943 75.1862 52.1923C75.1815 52.1904 75.1772 52.1875 75.1736 52.1838C75.1699 52.1802 75.1671 52.1759 75.1651 52.1712C75.1632 52.1664 75.1621 52.1613 75.1621 52.1562V49.9798C75.1624 49.9696 75.1666 49.9599 75.1739 49.9528C75.1812 49.9457 75.191 49.9417 75.2011 49.9417Z" fill="#BBD5FC"/>
<path d="M68.3168 53.416H109.316C109.326 53.416 109.336 53.42 109.343 53.4271C109.35 53.4343 109.354 53.444 109.354 53.4541V55.6305C109.354 55.6408 109.35 55.6508 109.343 55.6581C109.336 55.6654 109.326 55.6695 109.315 55.6695H68.3168C68.3065 55.6695 68.2966 55.6654 68.2892 55.6581C68.2819 55.6508 68.2778 55.6408 68.2778 55.6305V53.4569C68.2774 53.4516 68.2781 53.4463 68.2799 53.4412C68.2817 53.4362 68.2845 53.4316 68.2882 53.4278C68.2919 53.4239 68.2963 53.4209 68.3013 53.4188C68.3062 53.4168 68.3115 53.4158 68.3168 53.416Z" fill="#BBD5FC"/>
<path d="M85.801 79.6318C77.3237 79.6318 69.2802 78.5655 63.2832 77.0418C57.2244 75.5029 53.9634 72.9873 53.9634 70.7528C53.9634 68.7298 56.6262 66.8707 61.6551 65.3737C56.8335 66.8031 54.2544 68.9137 54.2544 70.7528C54.2544 72.7929 57.5972 74.8121 63.4258 76.2929C69.401 77.8108 77.3485 78.6465 85.8038 78.6465C94.2592 78.6465 102.207 77.8108 108.183 76.2929C114.01 74.8121 117.353 72.7929 117.353 70.7528C117.353 68.5916 113.835 65.9064 108.168 63.7452C101.725 61.2868 93.7827 60.3749 85.8038 60.3749C70.8256 60.3749 64.6593 62.1272 59.309 64.3227C64.6821 62.1177 70.7723 59.6183 85.8038 59.6183C93.8141 59.6183 101.791 60.9781 108.264 63.4479C114.049 65.6558 117.644 68.4544 117.644 70.7528C117.644 72.9835 114.307 75.0598 108.248 76.5987C102.249 78.1262 94.2782 79.6318 85.801 79.6318Z" fill="#FB7369"/>
<path d="M137.278 99.5433C137.278 99.5433 136.999 102.262 136.693 102.776C136.387 103.291 135.082 104.935 134.526 105.254C133.971 105.573 134.866 103.088 134.753 102.604C134.64 102.12 134.295 103.488 134.051 103.52C133.807 103.551 133.869 102.321 133.861 101.873C133.852 101.425 135.052 100.319 135.477 99.3651C135.903 98.4112 137.278 99.5433 137.278 99.5433Z" fill="#FC9490"/>
<path d="M103.937 74.4643L103.314 73.2855C103.314 73.2855 103.623 71.1844 100.995 69.8551C100.995 69.8551 100.036 69.4635 99.4935 70.2477C98.9942 70.971 100.444 70.8404 100.366 72.0773C100.288 73.3141 100.874 74.0393 101.69 74.4414L102.365 75.2237L103.937 74.4643Z" fill="#FC9490"/>
<path d="M128.768 71.6456C128.768 71.6456 126.511 82.742 114.095 86.3677C110.219 87.4998 101.413 74.713 101.413 74.713C101.413 74.713 101.723 73.5342 103.662 73.8049C103.662 73.8049 112.236 79.4926 113.315 80.1111C114.273 80.659 120.572 73.0597 123.443 71.8381C126.315 70.6165 128.768 71.6456 128.768 71.6456Z" fill="#F2564B"/>
<path d="M95.7238 69.4605L95.3717 71.7577L106.902 73.5318L107.255 71.2347L95.7238 69.4605Z" fill="#FB7369"/>
<path d="M92.8707 70.1991L95.3757 71.76L95.7275 69.4635L92.8707 70.1991Z" fill="#FC9490"/>
<path d="M108.481 72.2059L108.37 72.932C108.337 73.1466 108.221 73.3393 108.046 73.4678C107.872 73.5962 107.653 73.65 107.439 73.6172L106.906 73.5343L107.258 71.2378L107.839 71.3274C108.04 71.3586 108.221 71.4687 108.341 71.6334C108.462 71.7981 108.512 72.004 108.481 72.2059Z" fill="#FC9490"/>
<path d="M143.592 141.403C143.592 141.403 145.133 142.811 144.829 143.813C144.524 144.814 143.138 145.48 142.949 146.704C142.761 147.927 142.011 148.594 141.333 148.594H138.108C138.108 148.594 137.611 147.736 138.813 147.473C140.015 147.21 140.468 145.776 140.393 144.442C140.318 143.108 140.506 141.328 140.506 141.328L143.061 140.736L143.592 141.403Z" fill="#293EB7"/>
<path d="M124.694 145.046C124.694 145.046 124.971 148.251 124.295 148.585L115.641 148.567C115.641 148.567 115.641 147.566 117.031 147.344C118.421 147.122 120.863 146.306 121.276 144.485C121.689 142.664 124.694 145.046 124.694 145.046Z" fill="#293EB7"/>
<path d="M117.387 99.7672C117.387 99.7672 117.844 105.389 118.38 112.141C119.11 121.317 119.987 132.587 120.073 134.725C120.223 138.432 120.825 144.362 120.825 144.362C120.825 144.362 122.252 145.772 125.105 145.178C125.105 145.178 127.65 136.712 128.376 127.754L128.41 127.312C129.087 118.193 130.138 98.9925 130.138 98.9925L117.387 99.7672Z" fill="#4F3ACE"/>
<path d="M117.387 99.7672C117.387 99.7672 117.844 105.389 118.38 112.141L128.38 127.752L128.414 127.309C129.09 118.19 130.142 98.9897 130.142 98.9897L117.387 99.7672Z" fill="#3D29B7"/>
<path d="M119.472 100.434C119.472 100.434 127.7 120.784 133.11 130.347C138.521 139.91 140.211 142.579 140.211 142.579C140.211 142.579 143.311 141.356 143.592 140.522C143.592 140.522 141.524 122.06 137.901 117.558C135.853 115.014 133.448 107.383 133.336 104.714C133.224 102.045 132.603 96.7628 132.603 96.7628L119.472 100.434Z" fill="#4F3ACE"/>
<path d="M130.295 69.07C130.295 69.07 124.729 71.7619 121.52 70.7632C122.13 70.0531 122.866 69.4624 123.692 69.0214C123.58 68.3763 123.495 67.816 123.444 67.3405C123.368 66.7717 123.323 66.1991 123.309 65.6253L125.457 63.933L127.494 62.313C127.335 66.8659 130.295 69.07 130.295 69.07Z" fill="#FC9490"/>
<path d="M133.231 97.8033C133.243 98.1445 132.516 98.5342 132.195 98.6809C129.817 99.7291 127.591 100.459 125.072 100.702C122.097 101.007 118.579 100.337 117.369 100.361C117.246 100.359 117.127 100.311 117.037 100.227C116.95 100.166 116.888 96.5741 116.95 92.0555C116.95 91.8726 116.95 91.6896 116.962 91.5076V91.4466C116.987 89.6809 117.048 87.8256 117.134 85.978C117.308 81.9101 117.629 77.989 118.172 75.8212C118.826 73.2636 120.307 71.5704 121.653 70.3411L122.763 69.3701C123.874 69.5893 125.046 69.5283 126.22 68.9566C127.504 68.3353 128.883 67.6654 129.109 67.836C130.787 69.0652 131.923 71.8305 132.532 75.3638C132.892 77.5781 133.061 79.8193 133.038 82.0626C133.038 82.9392 133.013 83.8407 132.964 84.7307C132.667 89.5532 132.964 93.7421 133.137 96.1653C133.182 96.8657 133.219 97.4136 133.231 97.8033Z" fill="#FB7369"/>
<path d="M133.133 97.5823C113.638 97.5432 129.537 76.3863 129.537 76.3863L132.696 75.3581C132.956 77.7347 133.078 80.1244 133.062 82.5152C133.062 83.4519 133.044 84.4143 133.008 85.3643C132.794 90.5166 133.008 94.9933 133.133 97.5823Z" fill="#F2564B"/>
<path d="M127.538 64.0521C127.538 64.0521 126.13 66.6249 123.448 67.3405C123.372 66.7717 123.327 66.1991 123.313 65.6253L125.461 63.933L127.538 64.0521Z" fill="#F48484"/>
<path d="M122.332 65.5491C122.332 65.5491 127.642 66.42 128.141 63.1487C128.641 59.8775 129.663 57.7859 126.291 57.0922C122.918 56.3985 122.07 57.5477 121.631 58.6006C121.191 59.6536 120.963 65.2384 122.332 65.5491Z" fill="#FC9490"/>
<path d="M130.071 56.6968C130.119 56.6415 130.231 56.6015 130.478 56.5824C130.337 56.5021 130.178 56.4573 130.016 56.4519C129.964 56.1079 129.781 55.499 129.188 55.3494C129.285 55.4058 129.368 55.4834 129.43 55.5763C129.492 55.6692 129.533 55.775 129.549 55.8858C128.862 55.1798 127.393 54.6662 123.323 54.9882C117.958 55.4123 119.727 58.8531 120.421 59.2638C121.115 59.6745 122.863 58.5492 124.157 58.6521C125.45 58.755 125.697 60.6284 126.136 60.8856C126.574 61.1429 126.402 60.6874 126.992 60.4187C127.581 60.15 127.642 61.1353 127.467 61.7766C127.292 62.4179 128.112 63.264 128.112 63.264L128.936 62.3741C129.761 61.4841 130.538 57.7154 130.163 56.9112C130.138 56.8444 130.105 56.773 130.071 56.6968Z" fill="#2C3A64"/>
<path d="M129.107 67.8045C129.107 67.8045 132.467 69.3987 134.078 71.8505C136.577 75.6525 139.473 89.5084 139.527 90.792C139.58 92.0755 137.413 101.134 137.413 101.134C137.413 101.134 135.214 100.989 134.647 99.8768C134.647 99.8768 135.087 90.569 134.808 89.9668C134.529 89.3645 125.642 77.484 126.641 74.9455C127.639 72.407 129.107 67.8045 129.107 67.8045Z" fill="#FB7369"/>
<path d="M103.302 73.2293C103.302 73.2293 103.485 72.5061 102.985 72.1811C102.484 71.8562 102.023 70.9719 101.812 71.092C101.375 71.3397 102.051 72.1106 101.927 73.073C101.884 73.4104 102.667 74.2927 103.302 73.2293Z" fill="#FC9490"/>
<path d="M21.6522 141.721C21.6522 141.721 13.7589 121.469 8.22314 124.694C2.68737 127.918 21.6522 141.721 21.6522 141.721Z" fill="#3A4ACE"/>
<path d="M17.7493 141.721C17.7493 141.721 7.3216 132.691 2.55899 134.368C-2.20361 136.045 17.7493 141.721 17.7493 141.721Z" fill="#3A4ACE"/>
<path d="M128.159 144.638C128.159 144.638 130.562 136.266 133.38 137.254C136.199 138.242 128.159 144.638 128.159 144.638Z" fill="#3A4ACE"/>
<path d="M130.352 144.18C130.352 144.18 136.485 140.146 137.834 141.393C139.183 142.64 130.352 144.18 130.352 144.18Z" fill="#3A4ACE"/>
<path d="M109.389 126.257H61.5381C61.3836 126.257 61.2357 126.195 61.1264 126.086C61.0172 125.976 60.9556 125.828 60.9551 125.673C60.9559 125.519 61.0176 125.371 61.1268 125.261C61.236 125.152 61.3838 125.091 61.5381 125.09H109.388C109.542 125.091 109.689 125.153 109.798 125.262C109.907 125.371 109.969 125.519 109.97 125.673C109.969 125.828 109.908 125.976 109.799 126.085C109.69 126.195 109.543 126.256 109.389 126.257Z" fill="#D2E4FD"/>
<path d="M109.389 128.591H61.5381C61.3836 128.591 61.2357 128.529 61.1264 128.419C61.0172 128.31 60.9556 128.162 60.9551 128.007C60.9559 127.852 61.0176 127.704 61.1268 127.595C61.236 127.486 61.3838 127.424 61.5381 127.424H109.388C109.542 127.425 109.689 127.486 109.798 127.595C109.907 127.705 109.969 127.853 109.97 128.007C109.969 128.161 109.908 128.309 109.799 128.419C109.69 128.528 109.543 128.59 109.389 128.591Z" fill="#D2E4FD"/>
<path d="M109.389 131.179H61.5381C61.3836 131.179 61.2357 131.117 61.1264 131.007C61.0172 130.898 60.9556 130.75 60.9551 130.595C60.9556 130.44 61.0173 130.292 61.1265 130.183C61.2357 130.074 61.3837 130.012 61.5381 130.012H109.388C109.542 130.012 109.69 130.074 109.799 130.183C109.908 130.292 109.969 130.44 109.97 130.595C109.969 130.749 109.908 130.897 109.799 131.007C109.69 131.116 109.543 131.178 109.389 131.179Z" fill="#D2E4FD"/>
<path d="M103.63 132.6H60.9761C60.965 132.6 60.9561 132.609 60.9561 132.62V133.747C60.9561 133.758 60.965 133.767 60.9761 133.767H103.63C103.641 133.767 103.65 133.758 103.65 133.747V132.62C103.65 132.609 103.641 132.6 103.63 132.6Z" fill="#D2E4FD"/>
</g>
<defs>
<clipPath id="clip0_1_6">
<rect width="156" height="149" fill="white"/>
</clipPath>
</defs>
</svg>
